Patient4_TMGait_0pt5_02_left_13_EMG.mot
version=1
nRows=20
nColumns=33
inDegrees=no
endheader
time	1LAddLong	2LGlutMax	3LGlutMed	4LIliopsoas	5LSemiMemb	6LBicFemLong	7LRecFem	8LVastMed	9LVastLat	10LGasMed	11LTibAnt	12lTibPost	13LPeroneusLong	14LSol	15LExtDigLong	16LFlexDigLong	17RAddLong	18RGlutMax	19RGlutMed	20RIliopsoas	21RSemiMemb	22RBicFemLong	23RRecFem	24RVastMed	25RVastLat	26RGasMed	27RTibAnt	28RTibPost	29RPeroneusLong	30RSol	31RExtDigLong	32RFlexDigLong
17.24	0.01236	0.019226	0.091553	-0.007782	-0.044556	-0.16907	0.26947	0.005646	-0.00351	-0.53146	-0.005188	-0.012817	-0.065308	0.21179	-0.020752	-0.020905	-0.06897	-0.026855	0.09491	0.011902	0.19882	0.024261	-0.088043	0.15533	-0.13229	0.002441	-0.43243	-0.018005	0.21774	-0.10788	-0.001526	-0.011597
17.241	0.003052	0.043335	0.067444	0.003815	0.079041	-0.18845	0.26611	0.003204	-0.011139	-0.39093	-0.000916	-0.018768	-0.066071	0.14389	-0.003204	-0.028229	-0.16693	0.017242	0.006256	-0.003204	0.22736	0.055695	-0.20569	0.17548	0.096588	0.004578	0.00824	-0.012512	0.013733	-0.089874	-0.00061	-0.00351
17.242	-0.003204	0.054169	0.04364	-0.000916	0.13245	-0.12085	0.28427	0.001526	-0.027313	-0.31128	-0.005341	-0.014496	-0.068512	0.14603	-0.023651	-0.021362	-0.18387	0.011902	-0.078735	0.012817	0.055542	-0.010223	-0.2681	0.16312	0.383	0.005646	-0.2121	-0.012207	0.005188	-0.054626	-0.002289	-0.00351
17.243	0.002136	0.049591	0.050659	-0.010071	0.090027	-0.014191	0.27496	0.003967	-0.022278	-0.26215	0.011749	-0.014496	-0.053253	0.16174	-0.002747	-0.010529	-0.14252	0.063171	-0.26901	-0.035248	-0.15778	-0.057068	-0.052795	0.12894	0.38086	0.001984	-0.72494	-0.001068	0.042725	-0.062714	-0.003662	0.00061
17.244	0.002899	0.054626	-0.023346	0.013275	0.034332	0.020447	0.27512	-0.00473	-0.018311	-0.18982	0.011139	-0.018158	-0.036621	0.13428	0.015869	-0.065308	-0.11337	0.073547	-0.12711	-0.058441	-0.22766	-0.06485	0.14801	0.12085	0.29556	0.002594	-0.32227	0.000458	-0.013275	-0.10315	-0.003204	-0.003052
17.245	0.010223	0.042725	-0.12314	0.001526	0.006714	0.001373	0.25635	-0.005798	-0.021667	-0.068207	0.004272	-0.019379	-0.017242	0.096741	0.032806	-0.061188	-0.077515	0.072937	0.2861	-0.066986	-0.24918	-0.06485	0.13473	0.58227	0.25452	-0.000916	-0.015869	-0.001526	-0.049744	-0.082703	-0.000458	-0.002899
17.246	-0.002899	0.076447	-0.12085	-0.003815	-0.001221	0.004425	0.25574	-0.010986	-0.014343	0.051727	0.00412	-0.013885	-0.026398	0.11322	0.040588	-0.023804	-0.052185	0.062714	0.42374	-0.036469	-0.18646	-0.075836	-0.065918	0.70313	0.20508	-0.006104	0.028381	-0.003357	-0.028229	-0.099945	-0.003052	-0.002594
17.247	0.003052	0.069733	-0.13779	-0.015259	-0.028381	-0.0177	0.25131	0.00473	-0.007172	0.14404	0.002899	-0.021362	-0.05249	0.10834	0.045319	-0.054779	-0.015106	0.019531	0.24536	-0.013275	0.079193	-0.18967	-0.12665	0.37842	0.13565	0.002747	0.25955	0.006409	-0.018616	-0.12497	-0.001068	-0.001984
17.248	-0.002289	0.085449	-0.18478	0.000305	-0.058746	-0.029297	0.23911	-0.000763	-0.007172	0.13168	0.002289	-0.014648	-0.079498	0.088501	0.035706	0.17899	0.003052	-0.019073	0.24857	0.005035	0.24735	-0.23468	-0.12589	0.078735	0.08667	-0.00061	0.28153	0.006561	0.016937	-0.10895	-0.002899	-0.005646
17.249	-0.009918	0.078888	-0.19699	-0.006256	-0.081482	-0.044556	0.24796	-0.001831	-0.006256	-0.18616	0.006256	-0.013733	-0.073242	0.098877	0.027771	-0.060577	-0.020447	-0.053406	0.33234	0.021515	0.37033	-0.18768	-0.26352	0.082092	0.21805	-0.004883	0.14465	0.007629	0.084076	-0.11261	-0.003357	-0.010529
17.25	-0.011902	0.079956	-0.06546	-0.004578	-0.051117	-0.069733	0.26382	0.002747	-0.014801	-0.43396	0.002899	-0.019531	-0.072327	0.17166	0.019989	0.073853	-0.042267	-0.12024	0.19913	0.035095	0.18845	-0.1181	-0.32593	-0.043182	0.055542	-0.007782	-0.057526	0.013885	0.12863	-0.044098	-0.002747	-0.005035
17.251	0.011749	0.10452	0.001678	0.003052	0.036316	-0.088348	0.26093	0.005035	-0.001373	-0.3595	0.012207	-0.016937	-0.036316	0.33081	0.040131	-0.13886	-0.045624	-0.077515	-0.08728	0.063934	0.09201	-0.037537	-0.168	-0.11917	-0.19913	-0.002289	-0.1181	0.00885	0.067749	-0.014038	-0.002899	-0.011139
17.252	0.002594	0.076599	-0.17563	-0.002136	0.075226	-0.042877	0.24292	0.00351	-0.004578	-0.2092	0.010223	-0.007477	-0.016937	0.45761	0.043335	-0.10147	-0.02243	-0.16464	-0.1152	0.069733	0.062866	-0.025787	-0.2095	-0.37521	-0.44952	-0.009155	-0.010986	0.006866	0.069275	0.001831	-0.001831	-0.007019
17.253	0.014038	0.06546	-0.19547	0.006104	0.057983	0.043793	0.22415	0.003967	0.000305	-0.080566	-0.007629	0.003204	0.080719	0.25696	0.021362	0.33691	-0.012054	-0.242	0.15808	0.059662	0.07431	-0.041351	-0.27237	-0.50476	-0.36911	-0.008698	0.072479	0.006561	0.12009	-0.001221	-0.002747	-0.012665
17.254	0.022888	0.05249	-0.11429	0.00412	0.040436	0.014954	0.22476	0.002594	-0.001678	-0.088806	0.005493	0.004425	0.078278	0.14404	-0.042114	-0.46295	-0.000305	-0.2655	0.59021	0.063019	0.006104	-0.05127	-0.19882	-0.33676	0.19684	-0.009918	0.043335	0.015259	0.11887	0.043488	-0.000458	-0.007477
17.255	0.020294	0.021515	-0.13565	0.005798	0.058441	-0.028076	0.21393	-0.003967	-0.007935	0.18066	0.003204	0.001221	-0.001068	-0.030823	-0.071564	0.41184	0.019836	-0.26428	0.53345	0.000916	-0.063019	-0.046844	-0.036316	-0.32059	0.19684	-0.015106	0.036163	0.006561	0.1207	0.064697	-0.000763	-0.002441
17.256	0.013885	0.065613	-0.1886	0.010071	0.062561	-0.04776	0.20966	-0.001221	-0.013428	0.63171	0.010681	0.010376	-0.060272	-0.35797	-0.052185	0.32761	0.009613	-0.12207	0.24704	-0.14526	-0.05249	-0.011444	-0.20554	-0.1709	-0.22461	-0.010681	0.086212	0.007935	0.073395	0.073547	-0.001984	-0.000916
17.257	0.00885	0.06073	-0.17364	-0.008392	0.04776	-0.029755	0.19379	0.00351	-0.004272	0.69611	0.012207	0.021667	-0.13794	-0.4834	-0.030823	0.016174	0.006561	-0.027313	0.24292	-0.20233	-0.027771	0.019379	-0.65887	-0.041046	-0.59082	-0.00946	0.18112	0.00473	0.021515	0.025635	-0.001526	-0.003052
17.258	0.002899	0.059204	-0.20432	0.010529	-0.000916	-0.007477	0.18707	0.006866	-0.01297	0.81482	0.006561	0.016632	-0.05188	-0.33371	-0.027466	-0.061035	0.045166	0.09964	0.16495	-0.17654	-0.12436	0.011902	-0.64835	0.12512	-0.27512	-0.00946	0.32883	0.007477	-0.027161	-0.002289	-0.003052	-0.003357
17.259	-0.000916	0.11368	-0.19104	-0.000305	-0.018616	0.00946	0.16037	0.005646	-0.009613	0.66269	0.007629	0.007019	0.14481	-0.075989	-0.011902	-0.44296	0.049744	0.23361	0.051117	-0.13123	-0.19852	-0.037231	-0.60196	0.29938	0.15625	-0.005493	0.1471	0.003052	0.12817	-0.010223	-0.002899	-0.002747
